<?xml version="1.0" encoding="UTF-8"?>
<svg id="Layer_1" xmlns="http://www.w3.org/2000/svg" version="1.1" viewBox="0 0 757 230.6">
  <!-- Generator: Adobe Illustrator 29.3.1, SVG Export Plug-In . SVG Version: 2.1.0 Build 151)  -->
  <defs>
    <style>
      .st0 {
        fill: #fff3e3;
      }
    </style>
  </defs>
  <path class="st0" d="M37.7,33.5c-5.1,0-9.3-1.5-12.6-4.4-3.3-2.9-4.9-6.6-4.9-11s1.6-8.1,4.9-11c3.3-2.9,7.5-4.4,12.6-4.4s9.5,1.5,12.7,4.4c3.2,2.9,4.8,6.6,4.8,11s-1.6,8.1-4.8,11c-3.2,2.9-7.5,4.4-12.7,4.4h0ZM24.6,147.1c-7.6,0-13.6-1.4-18-4.1-4.4-2.7-6.6-6.8-6.6-12.4s1.1-5.9,3.2-8c2.2-2,4.9-3.1,8.2-3.1s5.3.6,7.1,1.9c1.7,1.3,3,2.9,3.7,4.8.7,1.9,1.3,3.8,1.8,5.6.5,1.8,1.2,3.4,2.2,4.7,1,1.3,2.3,1.9,4.1,1.9s3-.6,4.1-1.8c1.1-1.2,1.6-2.8,1.6-4.6s-.5-5-1.6-7.2c-1.1-2.2-2.2-3.9-3.5-5.2-1.2-1.3-2.4-2.9-3.5-4.8-1.1-1.9-1.6-3.9-1.6-6.1v-38.5c0-2.7-1-5.2-3.1-7.7-2-2.5-3.1-4.2-3.1-5.2v-.6c0-1.1,1.1-2.3,3.4-3.5l23.4-11.4c2.2-.9,3.9-1,5.2-.3,1.3.7,1.9,1.9,1.9,3.5v72.5c0,8.2-2,14.7-6,19.5-5.6,6.7-13.2,10-22.8,10h0Z"/>
  <path class="st0" d="M109.4,110.5c6.6,0,9.8-6.3,9.8-18.9s-.6-10.1-1.9-16.5c-1.3-6.4-3.4-12.4-6.5-18-3-5.6-6.4-8.5-10.1-8.5s-6.2,1.6-7.7,4.8c-1.5,3.2-2.3,8-2.3,14.5s.4,7.4,1.2,12c.8,4.6,1.9,9.3,3.4,13.9,1.4,4.7,3.4,8.6,5.9,11.8,2.5,3.2,5.2,4.8,8.1,4.8h0ZM106.2,118c-11.9,0-22-3.7-30.2-11-8.3-7.3-12.4-16.5-12.4-27.6s4.1-20.2,12.3-27.5c8.2-7.2,17.9-10.9,29.2-10.9s21.6,3.6,29.8,10.9c8.2,7.3,12.3,16.5,12.3,27.7s-4,20.2-12,27.5c-8,7.2-17.7,10.8-29.1,10.8h0Z"/>
  <path class="st0" d="M189.1,48.6c-3.1,0-5.6,1.5-7.5,4.6-1.9,3.1-2.8,6.9-2.8,11.5s.8,11.5,2.3,16.2l14.3-8.6c2.7-1.8,4-4.5,4-7.8s-.9-6.9-2.5-10.5c-1.7-3.6-4.3-5.4-7.8-5.4h0ZM217.6,92.1c1.1-1.1,2.4-1.5,3.8-1,1.4.5,2,1.5,1.9,3.2-.2,5.1-3.2,10.4-8.9,15.7-5.7,5.3-13.2,8-22.3,8s-20.3-3.6-27.4-10.8c-7.1-7.2-10.6-16.6-10.6-28.2s3.7-20.2,11.2-27.3c7.4-7.1,16.3-10.7,26.7-10.7s16.6,2.2,21.7,6.5c5.1,4.3,7.7,9.2,7.7,14.6s-2,7.5-6,9.5l-30.6,17.2c4.2,6.7,10,10,17.5,10s6.2-.6,9-1.9c2.8-1.3,4.9-2.9,6.4-4.9h0Z"/>
  <path class="st0" d="M308,42.6c2.4,0,3.5,1,3.5,2.9v.6c0,1.5-1.2,3.6-3.5,6.3s-3.9,5.1-4.8,7.2l-29.1,62.6c-1.4,3.3-2.9,6.1-4.2,8.5-1.4,2.4-3.3,5.2-5.7,8.5-2.4,3.2-5.3,5.7-8.5,7.5-3.3,1.8-6.8,2.7-10.6,2.7-7.2,0-13.1-1.8-17.6-5.4-4.6-3.6-6.8-7.7-6.8-12.5s1-5.9,2.9-7.8c1.9-2,4.6-2.9,8-2.9s6,1.1,7.9,3.2c1.9,2.2,3.1,4.5,3.5,7s1.2,4.9,2.1,7c.9,2.2,2.2,3.2,3.7,3.2,4,0,8.8-6.7,14.5-20l-31.2-61.7c-1.1-2.2-2.9-4.5-5.2-7.2-2.3-2.6-3.5-4.7-3.5-6.4v-.6c0-1.9,1.2-2.9,3.5-2.9h33.1c2.3,0,3.4,1,3.4,3.1v.6c0,1-.5,2.2-1.4,3.5-.9,1.3-1.5,2.6-1.8,3.7-.3,1.1,0,3.3,1.1,6.5l15.7,36.9,14.2-34.3c1.1-3.8,1.2-6.4,0-7.9-1.1-1.5-2.6-3-4.5-4.5-1.9-1.5-2.8-2.8-2.8-3.8v-.6c0-2,1.2-3.1,3.5-3.1h20.6Z"/>
  <path class="st0" d="M471.4,99.7c.2,2.6,1.2,5.1,2.9,7.7,1.7,2.6,2.6,4.5,2.6,5.7v.6c0,1.9-1.2,2.9-3.7,2.9h-30.8c-2.5,0-3.7-1-3.7-2.9v-.6c0-1.1,1-3,2.9-5.5,1.9-2.6,2.8-5.2,2.6-7.8l-1.5-27.2c-.4-7.7-1.4-13.2-3.1-16.4-1.6-3.2-4.2-4.8-7.5-4.8s-5.4,1.3-7.1,4c-1.6,2.7-2.5,6.2-2.5,10.6.3,2.2.5,4.3.5,6.5v27.4c0,2.6.9,5.1,2.8,7.7,1.8,2.6,2.8,4.5,2.8,5.7v.6c0,1.9-1.2,2.9-3.7,2.9h-30.6c-2.5,0-3.7-1-3.7-2.9v-.6c0-1.2.9-3.1,2.7-5.7,1.8-2.6,2.7-5.1,2.7-7.7v-29.2c0-12.8-3.5-19.2-10.5-19.2s-6,1.3-7.7,4c-1.7,2.7-2.6,6.2-2.6,10.6v33.8c0,2.6,1.1,5.1,3.4,7.7,2.3,2.6,3.4,4.5,3.4,5.7v.6c0,1.9-1.2,2.9-3.7,2.9h-33.2c-2.5,0-3.7-1-3.7-2.9v-.6c0-1.2,1.1-3.1,3.4-5.7,2.3-2.6,3.4-5.1,3.4-7.7v-30.3c0-2.1-.7-3.8-2.1-5.3-1.4-1.5-2.7-2.8-4.1-3.9-1.3-1.1-2-2.3-2-3.5v-.5c0-1.3,1.2-2.6,3.7-3.8l23.1-10.6c1.8-.8,3.3-.8,4.3,0,1,.8,1.5,2,1.5,3.7v5.5c4.7-6.6,11.5-9.8,20.5-9.8s19.8,4.2,25.2,12.6c2-4,5.1-7.1,9.1-9.3,4-2.2,8.6-3.3,13.7-3.3,7.5,0,13.9,2.5,19.2,7.5,5.3,5,8.3,13.3,9.2,24.8l2,26.3Z"/>
  <path class="st0" d="M527.9,110.5c6.6,0,9.9-6.3,9.9-18.9s-.6-10.1-1.9-16.5c-1.3-6.4-3.4-12.4-6.5-18-3-5.6-6.4-8.5-10.1-8.5s-6.2,1.6-7.7,4.8c-1.5,3.2-2.3,8-2.3,14.5s.4,7.4,1.2,12c.8,4.6,1.9,9.3,3.4,13.9,1.4,4.7,3.4,8.6,5.9,11.8,2.5,3.2,5.2,4.8,8.1,4.8h0ZM524.7,118c-11.9,0-22-3.7-30.2-11-8.3-7.3-12.4-16.5-12.4-27.6s4.1-20.2,12.3-27.5c8.2-7.2,17.9-10.9,29.2-10.9s21.6,3.6,29.8,10.9c8.2,7.3,12.3,16.5,12.3,27.7s-4,20.2-12,27.5c-8,7.2-17.7,10.8-29.1,10.8h0Z"/>
  <path class="st0" d="M624.5,41.1c4.4,0,7.9,1.4,10.5,4.3,2.6,2.9,3.9,6.5,3.9,10.9,0,9.6-4,14.5-11.9,14.5s-5.6-.7-7.2-2.2c-1.6-1.5-2.6-3.2-2.8-5-.3-1.8-.8-3.5-1.6-5-.8-1.5-2-2.2-3.7-2.2-3.8,0-5.7,4.9-5.7,14.8v28.6c0,2.6,1.4,5.1,4.1,7.6,2.7,2.5,4.1,4.4,4.1,5.6v.6c0,1.9-1.2,2.9-3.7,2.9h-33.1c-2.5,0-3.7-1-3.7-2.9v-.6c0-1.2,1-3.1,3.1-5.6,2-2.5,3.1-5.1,3.1-7.6v-30.6c0-2-.6-3.8-1.8-5.2-1.2-1.4-2.5-2.7-3.7-3.7-1.2-1-1.8-2.2-1.8-3.4v-.5c0-1.7,1.2-3.2,3.5-4.5l21.7-10.2c2-.7,3.5-.8,4.3-.2.8.6,1.2,1.8,1.2,3.5v11.2c3.5-10.2,10.6-15.2,21.2-15.2h0Z"/>
  <path class="st0" d="M676.5,48.6c-3.1,0-5.6,1.5-7.5,4.6-1.9,3.1-2.8,6.9-2.8,11.5s.8,11.5,2.3,16.2l14.3-8.6c2.7-1.8,4-4.5,4-7.8s-.8-6.9-2.5-10.5c-1.7-3.6-4.3-5.4-7.8-5.4h0ZM705,92.1c1.1-1.1,2.4-1.5,3.8-1,1.4.5,2,1.5,1.9,3.2-.2,5.1-3.2,10.4-8.9,15.7-5.7,5.3-13.2,8-22.3,8s-20.3-3.6-27.4-10.8c-7.1-7.2-10.6-16.6-10.6-28.2s3.7-20.2,11.2-27.3c7.4-7.1,16.3-10.7,26.7-10.7s16.6,2.2,21.7,6.5c5.1,4.3,7.7,9.2,7.7,14.6s-2,7.5-6,9.5l-30.6,17.2c4.2,6.7,10.1,10,17.5,10s6.2-.6,9-1.9c2.8-1.3,4.9-2.9,6.4-4.9h0Z"/>
  <path class="st0" d="M720.1,116.5c-2.4,0-3.5-1-3.5-2.9v-.6c0-1.2,1-3.1,3-5.6,2-2.5,3-5.1,3-7.6V29.4c0-2.7-1-5.3-3-7.8-2-2.5-3-4.3-3-5.3v-.6c0-1.1,1.1-2.3,3.4-3.5l23.2-11.4c2.2-.9,3.9-1,5.2-.2,1.3.8,1.9,1.9,1.9,3.5v95.7c0,2.6,1.1,5.1,3.4,7.6,2.3,2.5,3.4,4.4,3.4,5.6v.6c0,1.9-1.2,2.9-3.7,2.9h-33.2Z"/>
  <path class="st0" d="M84.5,182c-2.8-2.2-7.1-3.6-12.1-3.6-9.3,0-16.1,6-16.1,15.9s6.8,15.9,16.7,15.9,6.1-.6,8-1.4v-13.8l7.2-.2v18.5c-3.7,2.3-9.1,3.6-15.5,3.6-14.4,0-23.9-9.4-23.9-22.6s9.6-22.6,23.1-22.6,11.2,1.2,14.9,3.7l-2.4,6.6Z"/>
  <path class="st0" d="M115.5,190.1c-.7-.3-2.2-.6-3.3-.6-3.2,0-6.3,1.6-8.6,3.9v22.8h-7v-32.6l7-.3v4.4c2.7-3.1,6.2-4.8,9.7-4.8s1.9.2,2.5.4l-.2,6.7Z"/>
  <path class="st0" d="M140.5,203.3c-1.9-1-4.7-1.5-7.2-1.5-4.8,0-7.6,1.6-7.6,5.4s2.5,4.9,6.5,4.9,6.5-1.2,8.3-2.6v-6.2ZM140.6,216.3v-2.7c-2.6,1.9-6.4,3.3-10.6,3.3-7.3,0-11.3-3.6-11.3-9.6s5.1-10,13.1-10,6.8.7,8.7,1.6v-3.1c0-4.7-2.8-6.6-8.4-6.6s-8,1.1-10.3,2.6l-.3-6.3c2.9-1.6,7.1-2.5,11.5-2.5,9.2,0,14.3,3.7,14.3,12.3v21h-6.6Z"/>
  <path class="st0" d="M169.8,189.1c-2.7,0-5.3.8-7.3,2.4v18.1c1.6.7,4.1,1.3,6.5,1.3,6.1,0,10.6-4.2,10.6-11s-3.9-10.7-9.9-10.7h0ZM170.1,216.9c-3.1,0-5.6-.4-7.7-1.4v14.7h-7v-46.3l7-.3v2.6c2.5-1.9,5.6-3,9.2-3,8.5,0,15.2,6.1,15.2,16.6s-7,17.2-16.8,17.2h0Z"/>
  <path class="st0" d="M215.5,216.3v-20.1c0-4.8-2.6-7-6.9-7s-6.1,1.3-8.8,3.1v24h-7v-46.8l7-.4v17.8c3.6-2.7,7.4-3.9,11.2-3.9,7,0,11.5,3.6,11.5,11.7v21.6h-7Z"/>
  <path class="st0" d="M237.6,216.3h-7v-32.6l7-.3v32.9ZM238.2,173.3c0,2.3-1.7,4.1-4,4.1s-4.2-1.8-4.2-4.1,1.8-3.9,4.2-3.9,4,1.7,4,3.9h0Z"/>
  <path class="st0" d="M266,190.4c-2.1-1-5.1-1.6-8.3-1.6s-5.8,1.5-5.8,3.7c0,5.3,16.7,3.6,16.7,14.4s-3.9,10-13.3,10-8.5-1-10.9-2.5l.5-6c2.5,1.6,6.6,2.8,10.3,2.8s6.2-1.3,6.2-3.9c0-5.4-16.6-3.6-16.6-14.4s4.6-9.7,13-9.7,7.1.5,9.3,1.4l-1,5.9Z"/>
  <path class="st0" d="M293.1,189.6h-9.5v15.8c0,3.7,2,5.3,5.3,5.3s3.6-.7,4.8-1.6l.4,6c-1.6,1.1-3.9,1.7-6.6,1.7-7.2,0-10.7-3.7-10.7-10.6v-16.7h-4.6v-6h4.6v-7.1l6.9-1.6v8.7h10l-.5,6Z"/>
  <path class="st0" d="M304.4,197.4h16.7c0-.3,0-.8,0-1.2,0-4.7-3.1-8-7.8-8s-8.4,3.6-8.9,9.2h0ZM304.6,201.6c.7,5.7,5.2,9.2,12.1,9.2s8-1.2,10.6-3.1l.3,6.2c-2.5,1.9-7.4,3-11.4,3-11.8,0-19-6.6-19-17.2s6.8-16.6,16-16.6,14.4,5.4,14.4,14.1,0,3-.3,4.5h-22.8Z"/>
  <path class="st0" d="M363.5,178.2h-6.5v17.3h6.5c6.3,0,10.9-2.3,10.9-8.6s-4.6-8.6-10.9-8.6h0ZM363.8,201.5h-6.8v14.9h-7.2v-44.2h14.1c10.9,0,18,4.9,18,14.7s-7.2,14.7-18.1,14.7h0Z"/>
  <path class="st0" d="M410.8,216.3v-20.1c0-4.8-2.6-7-6.9-7s-6.1,1.3-8.8,3.1v24h-7v-46.8l7-.4v17.8c3.6-2.7,7.4-3.9,11.2-3.9,7,0,11.5,3.6,11.5,11.7v21.6h-7Z"/>
  <path class="st0" d="M441,189.2c-5.7,0-10.1,4.4-10.1,10.8s4.5,10.8,10.1,10.8,10.1-4.4,10.1-10.8-4.5-10.8-10.1-10.8h0ZM441,216.9c-9.8,0-17.3-7-17.3-16.9s7.5-16.9,17.3-16.9,17.3,7,17.3,16.9-7.4,16.9-17.3,16.9h0Z"/>
  <path class="st0" d="M482.2,189.6h-9.5v15.8c0,3.7,2,5.3,5.3,5.3s3.6-.7,4.8-1.6l.4,6c-1.6,1.1-3.9,1.7-6.6,1.7-7.2,0-10.7-3.7-10.7-10.6v-16.7h-4.6v-6h4.6v-7.1l6.9-1.6v8.7h10l-.5,6Z"/>
  <path class="st0" d="M503.9,189.2c-5.7,0-10.1,4.4-10.1,10.8s4.5,10.8,10.1,10.8,10.1-4.4,10.1-10.8-4.5-10.8-10.1-10.8h0ZM503.9,216.9c-9.8,0-17.3-7-17.3-16.9s7.5-16.9,17.3-16.9,17.3,7,17.3,16.9-7.4,16.9-17.3,16.9h0Z"/>
  <path class="st0" d="M538.7,188c-4.5,0-7.1,2.7-7.1,6.5s2.7,6.5,7.1,6.5,7.2-2.7,7.2-6.5-2.8-6.5-7.2-6.5h0ZM555.6,188.4h-5.9c1.6,1.6,2.7,3.8,2.7,6.2,0,6.5-4.8,10.9-12.5,11.4l-4.5,4.7c1.6-.2,5.1-.5,6.7-.5,9.4,0,14.2,3.3,14.2,9.7s-4.8,10.7-16.6,10.7-12.7-1.3-16.2-3.5l.5-6.1c3.3,2.1,9.9,3.9,16.1,3.9s9.7-2,9.7-4.8-2.5-4.4-9.3-4.4-8,.4-10.8.9v-5.1l5.8-5.7c-6.5-.9-10.4-5.4-10.4-11.2s5.3-11.5,13.6-11.5,3.7.2,5.2.7l11.8-1.1v5.7Z"/>
  <path class="st0" d="M579.9,190.1c-.7-.3-2.2-.6-3.3-.6-3.2,0-6.2,1.6-8.6,3.9v22.8h-7v-32.6l7-.3v4.4c2.8-3.1,6.2-4.8,9.7-4.8s1.9.2,2.5.4l-.2,6.7Z"/>
  <path class="st0" d="M604.9,203.3c-1.9-1-4.7-1.5-7.2-1.5-4.8,0-7.6,1.6-7.6,5.4s2.5,4.9,6.5,4.9,6.5-1.2,8.3-2.6v-6.2ZM605,216.3v-2.7c-2.6,1.9-6.4,3.3-10.6,3.3-7.3,0-11.3-3.6-11.3-9.6s5.1-10,13.1-10,6.8.7,8.7,1.6v-3.1c0-4.7-2.8-6.6-8.4-6.6s-8,1.1-10.3,2.6l-.3-6.3c2.9-1.6,7.1-2.5,11.5-2.5,9.2,0,14.3,3.7,14.3,12.3v21h-6.6Z"/>
  <path class="st0" d="M634.2,189.1c-2.7,0-5.3.8-7.3,2.4v18.1c1.6.7,4.1,1.3,6.5,1.3,6.1,0,10.6-4.2,10.6-11s-3.9-10.7-9.9-10.7h0ZM634.5,216.9c-3.1,0-5.6-.4-7.7-1.4v14.7h-7v-46.3l7-.3v2.6c2.5-1.9,5.6-3,9.2-3,8.5,0,15.2,6.1,15.2,16.6s-7,17.2-16.8,17.2h0Z"/>
  <path class="st0" d="M679.9,216.3v-20.1c0-4.8-2.6-7-6.9-7s-6.1,1.3-8.8,3.1v24h-7v-46.8l7-.4v17.8c3.6-2.7,7.4-3.9,11.2-3.9,7,0,11.5,3.6,11.5,11.7v21.6h-7Z"/>
  <path class="st0" d="M699.8,197.4h16.7c0-.3,0-.8,0-1.2,0-4.7-3.1-8-7.8-8s-8.4,3.6-8.9,9.2h0ZM700,201.6c.7,5.7,5.2,9.2,12.1,9.2s8-1.2,10.6-3.1l.3,6.2c-2.5,1.9-7.4,3-11.4,3-11.8,0-19-6.6-19-17.2s6.8-16.6,16-16.6,14.4,5.4,14.4,14.1,0,3-.3,4.5h-22.8Z"/>
</svg>